<?xml version="1.0" encoding="UTF-8" standalone="no" ?>
<!DOCTYPE svg PUBLIC "-//W3C//DTD SVG 1.1//EN" "http://www.w3.org/Graphics/SVG/1.1/DTD/svg11.dtd">
<svg xmlns="http://www.w3.org/2000/svg" xmlns:xlink="http://www.w3.org/1999/xlink" version="1.1" width="500" height="500" viewBox="0 0 500 500" xml:space="preserve">
<!-- Created with SVG Stack Editor - https://svgstack.com -->
<defs>
</defs>
<rect x="0" y="0" width="100%" height="100%" fill="transparent"></rect>
<g transform="matrix(5 0 0 5 250 250)"  >
<g style=""   >
		
		<g transform="matrix(1 0 0 1 27.86 -0.13)" id="path_3"  >
<path style="stroke: none; stroke-width: 1; stroke-dasharray: none; stroke-linecap: butt; stroke-dashoffset: 0; stroke-linejoin: miter; stroke-miterlimit: 4; fill: rgb(255,255,255); fill-rule: nonzero; opacity: 1;"  transform=" translate(-77.91, -49.38)" d="M 75.5919 40.0869 L 75.5919 44.7314 L 80.2364 44.7314 L 80.2364 40.0869 L 82.5586 40.0869 L 82.5586 44.7314 L 87.2031 44.7314 L 87.2031 47.0536 L 82.5586 47.0536 L 82.5586 51.6977 L 87.2031 51.6977 L 87.2031 54.02 L 82.5586 54.02 L 82.5586 58.6644 L 80.2364 58.6644 L 80.2364 54.02 L 75.5919 54.02 L 75.5919 58.6644 L 73.2696 58.6644 L 73.2696 54.02 L 68.6255 54.02 L 68.6255 51.6977 L 73.2696 51.6977 L 73.2696 47.0536 L 68.6255 47.0536 L 68.6255 44.7314 L 73.2696 44.7314 L 73.2696 40.0869 L 75.5919 40.0869 Z M 80.2364 47.0533 L 75.5919 47.0533 L 75.5919 51.6977 L 80.2364 51.6977 L 80.2364 47.0533 Z" stroke-linecap="round" />
</g>
		<g transform="matrix(1 0 0 1 -1.96 0)" id="path_4"  >
<path style="stroke: none; stroke-width: 1; stroke-dasharray: none; stroke-linecap: butt; stroke-dashoffset: 0; stroke-linejoin: miter; stroke-miterlimit: 4; fill: rgb(255,255,255); fill-rule: nonzero; opacity: 1;"  transform=" translate(-48.09, -49.51)" d="M 50.279 16.7618 C 62.3931 16.7618 72.9695 23.3408 78.6346 33.1199 L 78.5794 33.0258 L 64.3261 41.2324 C 61.5182 36.4779 56.3705 33.2691 50.4648 33.203 L 50.2786 33.2019 C 41.2734 33.2019 33.9726 40.5027 33.9726 49.5079 C 33.9697 52.3463 34.7112 55.1358 36.1232 57.598 C 38.9339 62.5048 44.2178 65.8143 50.279 65.8143 C 56.3777 65.8143 61.6916 62.4628 64.4878 57.5036 L 64.4199 57.6225 L 78.6515 65.867 C 73.0484 75.5634 62.6168 82.122 50.6437 82.2527 L 50.279 82.2547 C 38.1266 82.2547 27.5202 75.6351 21.8692 65.8043 C 19.1106 61.005 17.5322 55.4412 17.5322 49.5079 C 17.5322 31.4229 32.193 16.7615 50.2786 16.7615 L 50.279 16.7618 Z" stroke-linecap="round" />
</g>
</g>
</g>
<g transform="matrix(5 0 0 5 250 250)"  >
<g style=""   >
		<g transform="matrix(1 0 0 1 27.86 -0.13)" id="path_3"  >
<path style="stroke: none; stroke-width: 1; stroke-dasharray: none; stroke-linecap: butt; stroke-dashoffset: 0; stroke-linejoin: miter; stroke-miterlimit: 4; fill: rgb(255,255,255); fill-rule: nonzero; opacity: 1;"  transform=" translate(-77.91, -49.38)" d="M 75.5919 40.0869 L 75.5919 44.7314 L 80.2364 44.7314 L 80.2364 40.0869 L 82.5586 40.0869 L 82.5586 44.7314 L 87.2031 44.7314 L 87.2031 47.0536 L 82.5586 47.0536 L 82.5586 51.6977 L 87.2031 51.6977 L 87.2031 54.02 L 82.5586 54.02 L 82.5586 58.6644 L 80.2364 58.6644 L 80.2364 54.02 L 75.5919 54.02 L 75.5919 58.6644 L 73.2696 58.6644 L 73.2696 54.02 L 68.6255 54.02 L 68.6255 51.6977 L 73.2696 51.6977 L 73.2696 47.0536 L 68.6255 47.0536 L 68.6255 44.7314 L 73.2696 44.7314 L 73.2696 40.0869 L 75.5919 40.0869 Z M 80.2364 47.0533 L 75.5919 47.0533 L 75.5919 51.6977 L 80.2364 51.6977 L 80.2364 47.0533 Z" stroke-linecap="round" />
</g>
		<g transform="matrix(1 0 0 1 -1.96 0)" id="path_4"  >
<path style="stroke: none; stroke-width: 1; stroke-dasharray: none; stroke-linecap: butt; stroke-dashoffset: 0; stroke-linejoin: miter; stroke-miterlimit: 4; fill: rgb(255,255,255); fill-rule: nonzero; opacity: 1;"  transform=" translate(-48.09, -49.51)" d="M 50.279 16.7618 C 62.3931 16.7618 72.9695 23.3408 78.6346 33.1199 L 78.5794 33.0258 L 64.3261 41.2324 C 61.5182 36.4779 56.3705 33.2691 50.4648 33.203 L 50.2786 33.2019 C 41.2734 33.2019 33.9726 40.5027 33.9726 49.5079 C 33.9697 52.3463 34.7112 55.1358 36.1232 57.598 C 38.9339 62.5048 44.2178 65.8143 50.279 65.8143 C 56.3777 65.8143 61.6916 62.4628 64.4878 57.5036 L 64.4199 57.6225 L 78.6515 65.867 C 73.0484 75.5634 62.6168 82.122 50.6437 82.2527 L 50.279 82.2547 C 38.1266 82.2547 27.5202 75.6351 21.8692 65.8043 C 19.1106 61.005 17.5322 55.4412 17.5322 49.5079 C 17.5322 31.4229 32.193 16.7615 50.2786 16.7615 L 50.279 16.7618 Z" stroke-linecap="round" />
</g>
</g>
</g>
</svg>