<?xml version="1.0" encoding="UTF-8" standalone="no" ?>
<!DOCTYPE svg PUBLIC "-//W3C//DTD SVG 1.1//EN" "http://www.w3.org/Graphics/SVG/1.1/DTD/svg11.dtd">
<svg xmlns="http://www.w3.org/2000/svg" xmlns:xlink="http://www.w3.org/1999/xlink" version="1.1" width="500" height="500" viewBox="0 0 500 500" xml:space="preserve">
<!-- Created with SVG Stack Editor - https://svgstack.com -->
<defs>
</defs>
<rect x="0" y="0" width="100%" height="100%" fill="transparent"></rect>
<g transform="matrix(4.95 0 0 4.95 250 250)"  >
<g style=""   >
		<g transform="matrix(1 0 0 1 0 0)" id="path_0"  >
<path style="stroke: none; stroke-width: 1; stroke-dasharray: none; stroke-linecap: butt; stroke-dashoffset: 0; stroke-linejoin: miter; stroke-miterlimit: 4; fill: rgb(122,122,122); fill-rule: nonzero; opacity: 1;"  transform=" translate(-50.09, -50)" d="M 94.1749 0.000488281 L 86.142 89.99 L 50.0335 100 L 14.0245 90.0041 L 6 0.000488281 L 94.1749 0.000488281 Z" stroke-linecap="round" />
</g>
		<g transform="matrix(1 0 0 1 18.02 -0.15)" id="path_1"  >
<path style="stroke: none; stroke-width: 1; stroke-dasharray: none; stroke-linecap: butt; stroke-dashoffset: 0; stroke-linejoin: miter; stroke-miterlimit: 4; fill: rgb(156,156,156); fill-rule: nonzero; opacity: 1;"  transform=" translate(-68.11, -49.85)" d="M 79.2648 84.2598 L 86.1295 7.35962 L 50.0874 7.35962 L 50.0874 92.3489 L 79.2648 84.2598 Z" stroke-linecap="round" />
</g>
		<g transform="matrix(1 0 0 1 -12.85 -3.74)" id="path_2"  >
<path style="stroke: none; stroke-width: 1; stroke-dasharray: none; stroke-linecap: butt; stroke-dashoffset: 0; stroke-linejoin: miter; stroke-miterlimit: 4; fill: rgb(235,235,235); fill-rule: nonzero; opacity: 1;"  transform=" translate(-37.24, -46.26)" d="M 24.3959 40.7407 L 25.3852 51.7792 L 50.0874 51.7792 L 50.0874 40.7407 L 24.3959 40.7407 Z" stroke-linecap="round" />
</g>
		<g transform="matrix(1 0 0 1 -13.84 -26.08)" id="path_3"  >
<path style="stroke: none; stroke-width: 1; stroke-dasharray: none; stroke-linecap: butt; stroke-dashoffset: 0; stroke-linejoin: miter; stroke-miterlimit: 4; fill: rgb(235,235,235); fill-rule: nonzero; opacity: 1;"  transform=" translate(-36.25, -23.92)" d="M 50.0875 18.3982 L 50.0493 18.3982 L 22.408 18.3982 L 23.4114 29.4369 L 50.0875 29.4369 L 50.0875 18.3982 Z" stroke-linecap="round" />
</g>
		<g transform="matrix(1 0 0 1 -12.1 19.1)" id="path_4"  >
<path style="stroke: none; stroke-width: 1; stroke-dasharray: none; stroke-linecap: butt; stroke-dashoffset: 0; stroke-linejoin: miter; stroke-miterlimit: 4; fill: rgb(235,235,235); fill-rule: nonzero; opacity: 1;"  transform=" translate(-37.98, -69.1)" d="M 50.0874 80.8935 L 50.0874 69.4088 L 50.039 69.4217 L 37.7453 66.1021 L 36.9594 57.2983 L 30.9856 57.2983 L 25.8784 57.2983 L 27.4249 74.6305 L 50.0366 80.9077 L 50.0874 80.8935 Z" stroke-linecap="round" />
</g>
		<g transform="matrix(1 0 0 1 13.79 -0.35)" id="path_5"  >
<path style="stroke: none; stroke-width: 1; stroke-dasharray: none; stroke-linecap: butt; stroke-dashoffset: 0; stroke-linejoin: miter; stroke-miterlimit: 4; fill: rgb(255,255,255); fill-rule: nonzero; opacity: 1;"  transform=" translate(-63.88, -49.65)" d="M 63.6421 51.779 L 62.3608 66.0952 L 50.0493 69.4182 L 50.0493 80.9024 L 72.679 74.6306 L 72.845 72.7657 L 75.439 43.7047 L 75.7083 40.7406 L 77.7011 18.3982 L 50.0493 18.3982 L 50.0493 29.4369 L 65.6038 29.4369 L 64.5994 40.7406 L 50.0493 40.7406 L 50.0493 51.779 L 63.6421 51.779 Z" stroke-linecap="round" />
</g>
</g>
</g>
<g transform="matrix(4.95 0 0 4.95 250 250)"  >
<g style=""   >
		<g transform="matrix(1 0 0 1 0 0)" id="path_0"  >
<path style="stroke: none; stroke-width: 1; stroke-dasharray: none; stroke-linecap: butt; stroke-dashoffset: 0; stroke-linejoin: miter; stroke-miterlimit: 4; fill: rgb(122,122,122); fill-rule: nonzero; opacity: 1;"  transform=" translate(-50.09, -50)" d="M 94.1749 0.000488281 L 86.142 89.99 L 50.0335 100 L 14.0245 90.0041 L 6 0.000488281 L 94.1749 0.000488281 Z" stroke-linecap="round" />
</g>
		<g transform="matrix(1 0 0 1 18.02 -0.15)" id="path_1"  >
<path style="stroke: none; stroke-width: 1; stroke-dasharray: none; stroke-linecap: butt; stroke-dashoffset: 0; stroke-linejoin: miter; stroke-miterlimit: 4; fill: rgb(156,156,156); fill-rule: nonzero; opacity: 1;"  transform=" translate(-68.11, -49.85)" d="M 79.2648 84.2598 L 86.1295 7.35962 L 50.0874 7.35962 L 50.0874 92.3489 L 79.2648 84.2598 Z" stroke-linecap="round" />
</g>
		<g transform="matrix(1 0 0 1 -12.85 -3.74)" id="path_2"  >
<path style="stroke: none; stroke-width: 1; stroke-dasharray: none; stroke-linecap: butt; stroke-dashoffset: 0; stroke-linejoin: miter; stroke-miterlimit: 4; fill: rgb(235,235,235); fill-rule: nonzero; opacity: 1;"  transform=" translate(-37.24, -46.26)" d="M 24.3959 40.7407 L 25.3852 51.7792 L 50.0874 51.7792 L 50.0874 40.7407 L 24.3959 40.7407 Z" stroke-linecap="round" />
</g>
		<g transform="matrix(1 0 0 1 -13.84 -26.08)" id="path_3"  >
<path style="stroke: none; stroke-width: 1; stroke-dasharray: none; stroke-linecap: butt; stroke-dashoffset: 0; stroke-linejoin: miter; stroke-miterlimit: 4; fill: rgb(235,235,235); fill-rule: nonzero; opacity: 1;"  transform=" translate(-36.25, -23.92)" d="M 50.0875 18.3982 L 50.0493 18.3982 L 22.408 18.3982 L 23.4114 29.4369 L 50.0875 29.4369 L 50.0875 18.3982 Z" stroke-linecap="round" />
</g>
		<g transform="matrix(1 0 0 1 -12.1 19.1)" id="path_4"  >
<path style="stroke: none; stroke-width: 1; stroke-dasharray: none; stroke-linecap: butt; stroke-dashoffset: 0; stroke-linejoin: miter; stroke-miterlimit: 4; fill: rgb(235,235,235); fill-rule: nonzero; opacity: 1;"  transform=" translate(-37.98, -69.1)" d="M 50.0874 80.8935 L 50.0874 69.4088 L 50.039 69.4217 L 37.7453 66.1021 L 36.9594 57.2983 L 30.9856 57.2983 L 25.8784 57.2983 L 27.4249 74.6305 L 50.0366 80.9077 L 50.0874 80.8935 Z" stroke-linecap="round" />
</g>
		<g transform="matrix(1 0 0 1 13.79 -0.35)" id="path_5"  >
<path style="stroke: none; stroke-width: 1; stroke-dasharray: none; stroke-linecap: butt; stroke-dashoffset: 0; stroke-linejoin: miter; stroke-miterlimit: 4; fill: rgb(255,255,255); fill-rule: nonzero; opacity: 1;"  transform=" translate(-63.88, -49.65)" d="M 63.6421 51.779 L 62.3608 66.0952 L 50.0493 69.4182 L 50.0493 80.9024 L 72.679 74.6306 L 72.845 72.7657 L 75.439 43.7047 L 75.7083 40.7406 L 77.7011 18.3982 L 50.0493 18.3982 L 50.0493 29.4369 L 65.6038 29.4369 L 64.5994 40.7406 L 50.0493 40.7406 L 50.0493 51.779 L 63.6421 51.779 Z" stroke-linecap="round" />
</g>
</g>
</g>
</svg>