<?xml version="1.0" encoding="UTF-8" standalone="no" ?>
<!DOCTYPE svg PUBLIC "-//W3C//DTD SVG 1.1//EN" "http://www.w3.org/Graphics/SVG/1.1/DTD/svg11.dtd">
<svg xmlns="http://www.w3.org/2000/svg" xmlns:xlink="http://www.w3.org/1999/xlink" version="1.1" width="500" height="500" viewBox="0 0 500 500" xml:space="preserve">
<!-- Created with SVG Stack Editor - https://svgstack.com -->
<defs>
</defs>
<rect x="0" y="0" width="100%" height="100%" fill="transparent"></rect>
<g transform="matrix(4.95 0 0 4.95 250 250)"  >
<g style=""   >
		<g transform="matrix(1 0 0 1 0 0)" id="path_0"  >
<path style="stroke: none; stroke-width: 1; stroke-dasharray: none; stroke-linecap: butt; stroke-dashoffset: 0; stroke-linejoin: miter; stroke-miterlimit: 4; fill: rgb(199,70,52); fill-rule: nonzero; opacity: 1;"  transform=" translate(-50, -49.53)" d="M 31.5287 81.057 C 14.0127 81.057 0 67.0442 0 49.5283 C 0 32.0124 14.0127 17.9996 31.5287 17.9996 L 68.4713 17.9996 C 85.9873 17.9996 100 32.0124 100 49.5283 C 100 67.0442 85.9873 81.057 68.4713 81.057 L 31.5287 81.057 Z M 67.5159 69.9105 C 78.9809 69.9105 87.8981 60.6748 87.8981 49.5283 C 87.8981 38.0633 78.6624 29.1461 67.5159 29.1461 L 32.4841 29.1461 C 21.0191 29.1461 12.1019 38.3818 12.1019 49.5283 C 12.1019 60.6748 21.3376 69.9105 32.4841 69.9105 L 67.5159 69.9105 Z" stroke-linecap="round" />
</g>
</g>
</g>
<g transform="matrix(4.95 0 0 4.95 250 250)"  >
<g style=""   >
		<g transform="matrix(1 0 0 1 0 0)" id="path_0"  >
<path style="stroke: none; stroke-width: 1; stroke-dasharray: none; stroke-linecap: butt; stroke-dashoffset: 0; stroke-linejoin: miter; stroke-miterlimit: 4; fill: rgb(199,70,52); fill-rule: nonzero; opacity: 1;"  transform=" translate(-50, -49.53)" d="M 31.5287 81.057 C 14.0127 81.057 0 67.0442 0 49.5283 C 0 32.0124 14.0127 17.9996 31.5287 17.9996 L 68.4713 17.9996 C 85.9873 17.9996 100 32.0124 100 49.5283 C 100 67.0442 85.9873 81.057 68.4713 81.057 L 31.5287 81.057 Z M 67.5159 69.9105 C 78.9809 69.9105 87.8981 60.6748 87.8981 49.5283 C 87.8981 38.0633 78.6624 29.1461 67.5159 29.1461 L 32.4841 29.1461 C 21.0191 29.1461 12.1019 38.3818 12.1019 49.5283 C 12.1019 60.6748 21.3376 69.9105 32.4841 69.9105 L 67.5159 69.9105 Z" stroke-linecap="round" />
</g>
</g>
</g>
</svg>